<?xml version="1.0" encoding="utf-8"?>
<!-- Generator: Adobe Illustrator 16.0.0, SVG Export Plug-In . SVG Version: 6.00 Build 0)  -->
<!DOCTYPE svg PUBLIC "-//W3C//DTD SVG 1.1//EN" "http://www.w3.org/Graphics/SVG/1.1/DTD/svg11.dtd">
<svg version="1.1" id="Layer_1" xmlns="http://www.w3.org/2000/svg" xmlns:xlink="http://www.w3.org/1999/xlink" x="0px" y="0px"
	 width="300px" height="71.002px" viewBox="0 0 300 71.002" enable-background="new 0 0 300 71.002" xml:space="preserve">
<g>
	<g>
		<path fill-rule="evenodd" clip-rule="evenodd" fill="#134680" d="M100.446,42.651v4.763h22.591v3.118
			c0,2.788-1.735,4.408-4.644,4.408h-17.947v2.489h20.596c6.191,0,10.808-2.549,10.808-7.7v-4.761h-22.603v-3.08
			c0-2.788,1.708-4.407,4.617-4.407h17.986v-2.529H111.28C105.089,34.952,100.446,37.5,100.446,42.651z M164.969,34.952h-17.295
			c-6.165,0-10.808,2.549-10.808,7.699v14.817h8.774L145.613,42.1c0-2.788,1.948-4.619,4.857-4.619h3.955v19.987h3.778V37.481h3.903
			c2.909,0,4.857,1.831,4.857,4.619v15.368h8.812V42.651C175.776,37.5,171.16,34.952,164.969,34.952z M62.818,43.901v13.567h21.803
			c6.191,0,10.808-2.548,10.808-7.7V34.952H73.626C67.435,34.952,62.818,38.749,62.818,43.901z M86.641,37.481v12.561
			c0,2.788-2.188,4.859-5.071,4.859h-9.976V42.313c0-2.789,2.161-4.832,5.043-4.832H86.641z M254.831,34.952l0.014,22.517h8.786
			l-0.013-22.517H254.831z M180.794,42.651v14.817h21.803c6.191,0,10.809-2.548,10.809-7.7V34.952h-21.803
			C185.411,34.952,180.794,37.5,180.794,42.651z M204.616,37.481v12.802c0,2.788-1.975,4.646-4.856,4.646h-10.19V42.1
			c0-2.788,1.948-4.619,4.83-4.619H204.616z M282.267,37.481H300v-2.529h-20.517c-6.191,0-10.836,2.549-10.836,7.699v4.801h22.592
			v2.828c0,2.789-1.948,4.621-4.857,4.621h-17.734v2.528h20.518c6.191,0,10.835-2.549,10.835-7.7v-4.801l-22.591,0.04V42.1
			C277.409,39.312,279.358,37.481,282.267,37.481z M232.04,37.481h17.81l-0.026-2.529h-20.566c-6.191,0-10.835,2.549-10.835,7.699
			v4.801h22.588v2.828c0,2.789-1.948,4.621-4.857,4.621h-17.73v2.567h20.593c6.191,0,10.809-2.548,10.809-7.7v-4.8h-22.64
			l0.026-2.868C227.21,39.312,229.132,37.481,232.04,37.481z M50.513,15.994L31.319,0L12.145,22.795
			c-6.323,7.538-6.323,17.996,0,23.267l19.194,15.993L50.513,39.26C56.836,31.723,56.836,21.264,50.513,15.994z M45.525,39.219
			l-8.992,10.703L17.955,34.439c-3.429-2.86-3.798-8.069-0.821-11.602l8.992-10.704l18.599,15.483
			C48.132,30.477,48.501,35.685,45.525,39.219z M6.582,29.497l-1.971,2.246c-6.323,7.537-6.056,18.221,0.267,23.512l18.928,15.748
			l6.138-7.291l-19.092-15.77C2.435,40.997,5.494,30.742,6.582,29.497z M42.097,27.759L26.371,14.666h-0.021l-3.818,4.596
			L38.38,32.438c3.408,2.859,3.777,8.067,0.821,11.602l3.716-4.678C46.736,34.807,46.243,31.293,42.097,27.759z"/>
	</g>
</g>
</svg>
